<?xml version="1.0" encoding="UTF-8" standalone="no"?>
<svg
   xmlns:dc="http://purl.org/dc/elements/1.1/"
   xmlns:cc="http://creativecommons.org/ns#"
   xmlns:rdf="http://www.w3.org/1999/02/22-rdf-syntax-ns#"
   xmlns:svg="http://www.w3.org/2000/svg"
   xmlns="http://www.w3.org/2000/svg"
   id="svg8"
   version="1.1"
   viewBox="0 0 285.75001 285.75001"
   height="1080"
   width="1080">
  <defs
     id="defs2">
    <marker
       orient="auto"
       refY="0"
       refX="0"
       id="Arrow1Mend"
       style="overflow:visible">
      <path
         id="path5322"
         d="M 0,0 5,-5 -12.5,0 5,5 Z"
         style="fill:#fa8f00;fill-opacity:1;fill-rule:evenodd;stroke:#fa8f00;stroke-width:1.00000003pt;stroke-opacity:1"
         transform="matrix(-0.4,0,0,-0.4,-4,0)" />
    </marker>
    <marker
       orient="auto"
       refY="0"
       refX="0"
       id="Arrow1Mend-4"
       style="overflow:visible">
      <path
         id="path5322-5"
         d="M 0,0 5,-5 -12.5,0 5,5 Z"
         style="fill:#fa8f00;fill-opacity:1;fill-rule:evenodd;stroke:#fa8f00;stroke-width:1.00000003pt;stroke-opacity:1"
         transform="matrix(-0.4,0,0,-0.4,-4,0)" />
    </marker>
  </defs>
  <metadata
     id="metadata5">
    <rdf:RDF>
      <cc:Work
         rdf:about="">
        <dc:format>image/svg+xml</dc:format>
        <dc:type
           rdf:resource="http://purl.org/dc/dcmitype/StillImage" />
        <dc:title></dc:title>
      </cc:Work>
    </rdf:RDF>
  </metadata>
  <rect
     y="-0.0035707499"
     x="0.0084436871"
     height="285.75"
     width="285.75"
     id="rect7624"
     style="fill:#c9ebfb;fill-opacity:1;stroke:none;stroke-width:18.2091732;stroke-linecap:round;stroke-miterlimit:4;stroke-dasharray:none;stroke-opacity:1;paint-order:markers stroke fill" />
  <g
     transform="matrix(1.4552084,0,0,1.4552084,353.40658,-315.79146)"
     id="g152" />
  <g
     transform="matrix(1.4552084,0,0,1.4552084,353.40658,-315.79146)"
     id="g154" />
  <g
     transform="matrix(1.4552084,0,0,1.4552084,353.40658,-315.79146)"
     id="g156" />
  <g
     transform="matrix(1.4552084,0,0,1.4552084,353.40658,-315.79146)"
     id="g158" />
  <g
     transform="matrix(1.4552084,0,0,1.4552084,353.40658,-315.79146)"
     id="g160" />
  <g
     transform="matrix(1.4552084,0,0,1.4552084,353.40658,-315.79146)"
     id="g162" />
  <g
     transform="matrix(1.4552084,0,0,1.4552084,353.40658,-315.79146)"
     id="g164" />
  <g
     transform="matrix(1.4552084,0,0,1.4552084,353.40658,-315.79146)"
     id="g166" />
  <g
     transform="matrix(1.4552084,0,0,1.4552084,353.40658,-315.79146)"
     id="g168" />
  <g
     transform="matrix(1.4552084,0,0,1.4552084,353.40658,-315.79146)"
     id="g170" />
  <g
     transform="matrix(1.4552084,0,0,1.4552084,353.40658,-315.79146)"
     id="g172" />
  <g
     transform="matrix(1.4552084,0,0,1.4552084,353.40658,-315.79146)"
     id="g174" />
  <g
     transform="matrix(1.4552084,0,0,1.4552084,353.40658,-315.79146)"
     id="g176" />
  <g
     transform="matrix(1.4552084,0,0,1.4552084,353.40658,-315.79146)"
     id="g178" />
  <g
     transform="matrix(1.4552084,0,0,1.4552084,353.40658,-315.79146)"
     id="g180" />
  <flowRoot
     transform="matrix(1.4552084,0,0,1.4552084,353.40658,-315.79146)"
     xml:space="preserve"
     id="flowRoot1041"
     style="font-style:normal;font-variant:normal;font-weight:500;font-stretch:normal;font-size:40px;line-height:1.25;font-family:Roboto;-inkscape-font-specification:'Roboto Medium';letter-spacing:0px;word-spacing:0px;fill:#000000;fill-opacity:1;stroke:none"><flowRegion
       id="flowRegion1043"><rect
         id="rect1045"
         width="3.9448078"
         height="40.43428"
         x="1147.9391"
         y="550.21259" /></flowRegion><flowPara
       id="flowPara1047" /></flowRoot>  <g
     id="g4220"
     transform="matrix(2.1166666,0,0,2.1166666,337.33047,15.256141)" />
  <g
     id="g4222"
     transform="matrix(2.1166666,0,0,2.1166666,337.33047,15.256141)" />
  <g
     id="g4224"
     transform="matrix(2.1166666,0,0,2.1166666,337.33047,15.256141)" />
  <g
     id="g4226"
     transform="matrix(2.1166666,0,0,2.1166666,337.33047,15.256141)" />
  <g
     id="g4228"
     transform="matrix(2.1166666,0,0,2.1166666,337.33047,15.256141)" />
  <g
     id="g4230"
     transform="matrix(2.1166666,0,0,2.1166666,337.33047,15.256141)" />
  <g
     id="g4232"
     transform="matrix(2.1166666,0,0,2.1166666,337.33047,15.256141)" />
  <g
     id="g4234"
     transform="matrix(2.1166666,0,0,2.1166666,337.33047,15.256141)" />
  <g
     id="g4236"
     transform="matrix(2.1166666,0,0,2.1166666,337.33047,15.256141)" />
  <g
     id="g4238"
     transform="matrix(2.1166666,0,0,2.1166666,337.33047,15.256141)" />
  <g
     id="g4240"
     transform="matrix(2.1166666,0,0,2.1166666,337.33047,15.256141)" />
  <g
     id="g4242"
     transform="matrix(2.1166666,0,0,2.1166666,337.33047,15.256141)" />
  <g
     id="g4244"
     transform="matrix(2.1166666,0,0,2.1166666,337.33047,15.256141)" />
  <g
     id="g4246"
     transform="matrix(2.1166666,0,0,2.1166666,337.33047,15.256141)" />
  <g
     id="g4248"
     transform="matrix(2.1166666,0,0,2.1166666,337.33047,15.256141)" />
  <g
     transform="matrix(3.7041666,0,0,3.7041666,306.29059,98.348938)"
     id="g4510" />
  <g
     transform="matrix(3.7041666,0,0,3.7041666,306.29059,98.348938)"
     id="g4512" />
  <g
     transform="matrix(3.7041666,0,0,3.7041666,306.29059,98.348938)"
     id="g4514" />
  <g
     transform="matrix(3.7041666,0,0,3.7041666,306.29059,98.348938)"
     id="g4516" />
  <g
     transform="matrix(3.7041666,0,0,3.7041666,306.29059,98.348938)"
     id="g4518" />
  <g
     transform="matrix(3.7041666,0,0,3.7041666,306.29059,98.348938)"
     id="g4520" />
  <g
     transform="matrix(3.7041666,0,0,3.7041666,306.29059,98.348938)"
     id="g4522" />
  <g
     transform="matrix(3.7041666,0,0,3.7041666,306.29059,98.348938)"
     id="g4524" />
  <g
     transform="matrix(3.7041666,0,0,3.7041666,306.29059,98.348938)"
     id="g4526" />
  <g
     transform="matrix(3.7041666,0,0,3.7041666,306.29059,98.348938)"
     id="g4528" />
  <g
     transform="matrix(3.7041666,0,0,3.7041666,306.29059,98.348938)"
     id="g4530" />
  <g
     transform="matrix(3.7041666,0,0,3.7041666,306.29059,98.348938)"
     id="g4532" />
  <g
     transform="matrix(3.7041666,0,0,3.7041666,306.29059,98.348938)"
     id="g4534" />
  <g
     transform="matrix(3.7041666,0,0,3.7041666,306.29059,98.348938)"
     id="g4536" />
  <g
     transform="matrix(3.7041666,0,0,3.7041666,306.29059,98.348938)"
     id="g4538" />
  <text
     id="text5912"
     y="176.75546"
     x="18.323866"
     style="font-style:normal;font-weight:normal;font-size:66.14583588px;line-height:125%;font-family:sans-serif;letter-spacing:0px;word-spacing:0px;fill:#294270;fill-opacity:1;stroke:none;stroke-width:1px;stroke-linecap:butt;stroke-linejoin:miter;stroke-opacity:1"
     xml:space="preserve"><tspan
       style="font-style:normal;font-variant:normal;font-weight:500;font-stretch:normal;font-size:95.25px;font-family:Roboto;-inkscape-font-specification:'Roboto Medium';fill:#294270;fill-opacity:1"
       y="176.75546"
       x="18.323866"
       id="tspan5914">AABC</tspan></text>
</svg>
